<?xml version="1.0" encoding="utf-8"?>
<!-- Svg Vector Icons : http://www.onlinewebfonts.com/icon -->
<!DOCTYPE svg PUBLIC "-//W3C//DTD SVG 1.1//EN" "http://www.w3.org/Graphics/SVG/1.1/DTD/svg11.dtd">
<svg version="1.1" xmlns="http://www.w3.org/2000/svg" xmlns:xlink="http://www.w3.org/1999/xlink" x="0px" y="0px" viewBox="0 0 256 256" enable-background="new 0 0 256 256" xml:space="preserve">
<metadata> Svg Vector Icons : http://www.onlinewebfonts.com/icon </metadata>
<g><g><path fill="#000000" d="M128,246c65.2,0,118-52.8,118-118c0-65.2-52.8-118-118-118C62.8,10,10,62.8,10,128C10,193.2,62.8,246,128,246z M93.3,97.8c22.7,11.5,41.9,10.8,41.9,10.8s-7.3-25.3,15.2-36.6c22.5-11.2,37.9,7.7,37.9,7.7s3.9-1.1,6.8-2.1c2.9-1.1,7.2-3,7.2-3l-6.9,12.4l10.7-1.1c0,0-1.3,1.9-5.6,5.8c-4.3,3.9-6,5.9-6,5.9s1.5,30.5-14.5,54c-16.1,23.5-36.8,37.6-67,40.5c-30.2,3-49.8-9.2-49.8-9.2s13.2-0.7,21.6-4c8.4-3.2,20.5-11.7,20.5-11.7s-17.2-5.3-23.4-11.2c-6.2-5.9-7.7-9.5-7.7-9.5l17-0.2c0,0-17.8-9.5-22.9-17c-5.1-7.5-5.7-14.8-5.7-14.8l13,5.3c0,0-10.8-14.7-12.4-26.2c-1.5-11.5,2-17.6,2-17.6S70.6,86.3,93.3,97.8z"/></g></g>
</svg>